# Blender 4.3.0
# www.blender.org
mtllib large_triangle.mtl
o Plane.005
v -2.000000 0.000000 -0.000000
v 2.000000 -0.000000 0.000000
v -2.000000 0.000000 -4.000000
v -2.000000 2.070534 -0.000000
v 2.000000 2.070534 0.000000
v -2.000000 2.070534 -4.000000
vn -0.0000 -1.0000 -0.0000
vn -0.0000 1.0000 -0.0000
vn 0.7071 -0.0000 -0.7071
vn -0.0000 -0.0000 1.0000
vn -1.0000 -0.0000 -0.0000
vt 0.000000 0.000000
vt 0.000000 1.000000
vt 1.000000 0.000000
s 1
usemtl Material.006
f 1/1/1 3/2/1 2/3/1
f 4/1/2 5/3/2 6/2/2
f 2/3/3 3/2/3 6/2/3 5/3/3
f 1/1/4 2/3/4 5/3/4 4/1/4
f 3/2/5 1/1/5 4/1/5 6/2/5
