# Blender 4.3.0
# www.blender.org
mtllib parallelogram.mtl
o Plane.001
v -1.000000 0.000000 0.000000
v 1.000000 0.000000 0.000000
v -1.000000 0.000000 -2.000000
v -1.000000 2.070534 0.000000
v 1.000000 2.070534 0.000000
v -1.000000 2.070534 -2.000000
v 1.000000 0.000000 -0.000000
v -1.000000 0.000000 0.000000
v 1.000000 0.000000 2.000000
v 1.000000 2.070534 -0.000000
v -1.000000 2.070534 0.000000
v 1.000000 2.070534 2.000000
vn -0.0000 -1.0000 -0.0000
vn -0.0000 1.0000 -0.0000
vn 0.7071 -0.0000 -0.7071
vn -0.0000 -0.0000 1.0000
vn -1.0000 -0.0000 -0.0000
vn -0.7071 -0.0000 0.7071
vn -0.0000 -0.0000 -1.0000
vn 1.0000 -0.0000 -0.0000
vt 0.000000 0.000000
vt 0.000000 1.000000
vt 1.000000 0.000000
s 0
usemtl Material.001
f 1/1/1 3/2/1 2/3/1
f 4/1/2 5/3/2 6/2/2
f 2/3/3 3/2/3 6/2/3 5/3/3
f 1/1/4 2/3/4 5/3/4 4/1/4
f 3/2/5 1/1/5 4/1/5 6/2/5
f 7/1/1 9/2/1 8/3/1
f 10/1/2 11/3/2 12/2/2
f 8/3/6 9/2/6 12/2/6 11/3/6
f 7/1/7 8/3/7 11/3/7 10/1/7
f 9/2/8 7/1/8 10/1/8 12/2/8
