# Blender 4.3.0
# www.blender.org
mtllib tangram.mtl
o Plane.008
v 1.707107 2.707105 -0.000000
v 1.000000 3.414212 -0.000000
v 1.000000 1.999998 -0.000000
v 1.707107 2.707105 1.035267
v 1.000000 3.414212 1.035267
v 1.000000 1.999998 1.035267
v 0.292893 2.707105 -0.000000
v 1.000000 1.999998 -0.000000
v 1.000000 3.414212 -0.000000
v 0.292894 2.707105 1.035267
v 1.000000 1.999998 1.035267
v 1.000000 3.414212 1.035267
v 2.414210 3.414212 -0.000000
v 1.000000 3.414212 -0.000000
v 2.414210 2.000002 -0.000000
v 2.414210 3.414212 1.035267
v 1.000000 3.414212 1.035267
v 2.414210 2.000002 1.035267
v -0.413941 0.585786 0.000000
v 1.000273 2.000000 -0.000000
v -1.828154 2.000000 0.000000
v -0.413941 0.585786 1.035267
v 1.000273 2.000000 1.035267
v -1.828154 2.000000 1.035267
v -2.000000 3.000000 0.000000
v -1.000000 3.000000 0.000000
v -2.000000 4.000000 0.000000
v -2.000000 3.000000 1.035267
v -1.000000 3.000000 1.035267
v -2.000000 4.000000 1.035267
v -1.000000 3.000000 0.000000
v -2.000000 3.000000 0.000000
v -1.000000 2.000000 0.000000
v -1.000000 3.000000 1.035267
v -2.000000 3.000000 1.035267
v -1.000000 2.000000 1.035267
v -0.000000 0.000000 0.000000
v 1.000000 0.000000 -0.000000
v -0.000000 1.000000 0.000000
v -0.000000 0.000000 1.035267
v 1.000000 0.000000 1.035267
v 0.000000 1.000000 1.035267
v -1.000000 2.000000 0.000000
v 1.000000 2.000000 -0.000000
v -1.000000 4.000000 0.000000
v -1.000000 2.000000 1.035267
v 1.000000 2.000000 1.035267
v -1.000000 4.000000 1.035267
v -1.826923 1.000000 0.000000
v -1.826923 0.000000 0.000000
v -0.826923 1.000000 0.000000
v -1.826923 1.000000 1.035267
v -1.826923 0.000000 1.035267
v -0.826922 1.000000 1.035267
vn -0.0000 -0.0000 -1.0000
vn -0.0000 -0.0000 1.0000
vn -1.0000 -0.0000 -0.0000
vn 0.7071 0.7071 -0.0000
vn 0.7071 -0.7071 -0.0000
vn 1.0000 -0.0000 -0.0000
vn -0.7071 -0.7071 -0.0000
vn -0.7071 0.7071 -0.0000
vn -0.0000 1.0000 -0.0000
vn -0.0000 -1.0000 -0.0000
vt 0.000000 0.000000
vt 0.000000 1.000000
vt 1.000000 0.000000
s 1
usemtl Material.022
f 1/1/1 3/2/1 2/3/1
f 4/1/2 5/3/2 6/2/2
f 2/3/3 3/2/3 6/2/3 5/3/3
f 1/1/4 2/3/4 5/3/4 4/1/4
f 3/2/5 1/1/5 4/1/5 6/2/5
f 7/1/1 9/2/1 8/3/1
f 10/1/2 11/3/2 12/2/2
f 8/3/6 9/2/6 12/2/6 11/3/6
f 7/1/7 8/3/7 11/3/7 10/1/7
f 9/2/8 7/1/8 10/1/8 12/2/8
usemtl Material.016
f 13/1/1 15/2/1 14/3/1
f 16/1/2 17/3/2 18/2/2
f 14/3/7 15/2/7 18/2/7 17/3/7
f 13/1/9 14/3/9 17/3/9 16/1/9
f 15/2/6 13/1/6 16/1/6 18/2/6
usemtl Material.017
f 19/1/1 21/2/1 20/3/1
f 22/1/2 23/3/2 24/2/2
f 20/3/9 21/2/9 24/2/9 23/3/9
f 19/1/5 20/3/5 23/3/5 22/1/5
f 21/2/7 19/1/7 22/1/7 24/2/7
usemtl Material.018
f 25/1/1 27/2/1 26/3/1
f 28/1/2 29/3/2 30/2/2
f 26/3/4 27/2/4 30/2/4 29/3/4
f 25/1/10 26/3/10 29/3/10 28/1/10
f 27/2/3 25/1/3 28/1/3 30/2/3
f 31/1/1 33/2/1 32/3/1
f 34/1/2 35/3/2 36/2/2
f 32/3/7 33/2/7 36/2/7 35/3/7
f 31/1/9 32/3/9 35/3/9 34/1/9
f 33/2/6 31/1/6 34/1/6 36/2/6
usemtl Material.019
f 37/1/1 39/2/1 38/3/1
f 40/1/2 41/3/2 42/2/2
f 38/3/4 39/2/4 42/2/4 41/3/4
f 37/1/10 38/3/10 41/3/10 40/1/10
f 39/2/3 37/1/3 40/1/3 42/2/3
usemtl Material.020
f 43/1/1 45/2/1 44/3/1
f 46/1/2 47/3/2 48/2/2
f 44/3/4 45/2/4 48/2/4 47/3/4
f 43/1/10 44/3/10 47/3/10 46/1/10
f 45/2/3 43/1/3 46/1/3 48/2/3
usemtl Material.021
f 49/1/1 51/2/1 50/3/1
f 52/1/2 53/3/2 54/2/2
f 50/3/5 51/2/5 54/2/5 53/3/5
f 49/1/3 50/3/3 53/3/3 52/1/3
f 51/2/9 49/1/9 52/1/9 54/2/9
